<mxfile host="app.diagrams.net" modified="2022-02-16T04:28:24.196Z" agent="5.0 (Windows NT 10.0; Win64; x64) AppleWebKit/537.36 (KHTML, like Gecko) Chrome/97.0.4692.99 Safari/537.36" etag="8gxQLhvV_CHnk1XP1eR4" version="16.5.6" type="github">
  <diagram id="WV9e3Si9cNKQYvHIKEoy" name="Page-1">
    <mxGraphModel dx="1088" dy="1689" grid="1" gridSize="10" guides="1" tooltips="1" connect="1" arrows="1" fold="1" page="1" pageScale="1" pageWidth="850" pageHeight="1100" math="0" shadow="0">
      <root>
        <mxCell id="0" />
        <mxCell id="1" parent="0" />
        <mxCell id="TfmfjPasP1LPnmOLtHZL-4" value="AWS Cloud" style="points=[[0,0],[0.25,0],[0.5,0],[0.75,0],[1,0],[1,0.25],[1,0.5],[1,0.75],[1,1],[0.75,1],[0.5,1],[0.25,1],[0,1],[0,0.75],[0,0.5],[0,0.25]];outlineConnect=0;gradientColor=none;html=1;whiteSpace=wrap;fontSize=12;fontStyle=0;container=1;pointerEvents=0;collapsible=0;recursiveResize=0;shape=mxgraph.aws4.group;grIcon=mxgraph.aws4.group_aws_cloud_alt;strokeColor=#232F3E;fillColor=none;verticalAlign=top;align=left;spacingLeft=30;fontColor=#232F3E;dashed=0;" parent="1" vertex="1">
          <mxGeometry x="50" y="-480" width="730" height="760" as="geometry" />
        </mxCell>
        <mxCell id="TfmfjPasP1LPnmOLtHZL-21" value="Amazon CloudWatch" style="sketch=0;outlineConnect=0;fontColor=#232F3E;gradientColor=none;strokeColor=#ffffff;fillColor=#232F3E;dashed=0;verticalLabelPosition=middle;verticalAlign=bottom;align=center;html=1;whiteSpace=wrap;fontSize=10;fontStyle=1;spacing=3;shape=mxgraph.aws4.productIcon;prIcon=mxgraph.aws4.cloudwatch;" parent="TfmfjPasP1LPnmOLtHZL-4" vertex="1">
          <mxGeometry x="610" y="20" width="60" height="90" as="geometry" />
        </mxCell>
        <mxCell id="TfmfjPasP1LPnmOLtHZL-5" value="Region" style="points=[[0,0],[0.25,0],[0.5,0],[0.75,0],[1,0],[1,0.25],[1,0.5],[1,0.75],[1,1],[0.75,1],[0.5,1],[0.25,1],[0,1],[0,0.75],[0,0.5],[0,0.25]];outlineConnect=0;gradientColor=none;html=1;whiteSpace=wrap;fontSize=12;fontStyle=0;container=1;pointerEvents=0;collapsible=0;recursiveResize=0;shape=mxgraph.aws4.group;grIcon=mxgraph.aws4.group_region;strokeColor=#147EBA;fillColor=none;verticalAlign=top;align=left;spacingLeft=30;fontColor=#147EBA;dashed=1;" parent="1" vertex="1">
          <mxGeometry x="70" y="-350" width="680" height="570" as="geometry" />
        </mxCell>
        <mxCell id="TfmfjPasP1LPnmOLtHZL-10" value="Availability Zone" style="fillColor=none;strokeColor=#147EBA;dashed=1;verticalAlign=top;fontStyle=0;fontColor=#147EBA;" parent="TfmfjPasP1LPnmOLtHZL-5" vertex="1">
          <mxGeometry x="20" y="146" width="300" height="314" as="geometry" />
        </mxCell>
        <mxCell id="TfmfjPasP1LPnmOLtHZL-11" value="Availability Zone" style="fillColor=none;strokeColor=#147EBA;dashed=1;verticalAlign=top;fontStyle=0;fontColor=#147EBA;" parent="TfmfjPasP1LPnmOLtHZL-5" vertex="1">
          <mxGeometry x="340" y="150" width="300" height="310" as="geometry" />
        </mxCell>
        <mxCell id="TfmfjPasP1LPnmOLtHZL-12" value="Public subnet" style="points=[[0,0],[0.25,0],[0.5,0],[0.75,0],[1,0],[1,0.25],[1,0.5],[1,0.75],[1,1],[0.75,1],[0.5,1],[0.25,1],[0,1],[0,0.75],[0,0.5],[0,0.25]];outlineConnect=0;gradientColor=none;html=1;whiteSpace=wrap;fontSize=12;fontStyle=0;container=1;pointerEvents=0;collapsible=0;recursiveResize=0;shape=mxgraph.aws4.group;grIcon=mxgraph.aws4.group_security_group;grStroke=0;strokeColor=#248814;fillColor=#E9F3E6;verticalAlign=top;align=left;spacingLeft=30;fontColor=#248814;dashed=0;" parent="TfmfjPasP1LPnmOLtHZL-5" vertex="1">
          <mxGeometry x="360" y="176" width="260" height="90" as="geometry" />
        </mxCell>
        <mxCell id="TfmfjPasP1LPnmOLtHZL-13" value="Public subnet" style="points=[[0,0],[0.25,0],[0.5,0],[0.75,0],[1,0],[1,0.25],[1,0.5],[1,0.75],[1,1],[0.75,1],[0.5,1],[0.25,1],[0,1],[0,0.75],[0,0.5],[0,0.25]];outlineConnect=0;gradientColor=none;html=1;whiteSpace=wrap;fontSize=12;fontStyle=0;container=1;pointerEvents=0;collapsible=0;recursiveResize=0;shape=mxgraph.aws4.group;grIcon=mxgraph.aws4.group_security_group;grStroke=0;strokeColor=#248814;fillColor=#E9F3E6;verticalAlign=top;align=left;spacingLeft=30;fontColor=#248814;dashed=0;" parent="TfmfjPasP1LPnmOLtHZL-5" vertex="1">
          <mxGeometry x="40" y="176" width="260" height="90" as="geometry" />
        </mxCell>
        <mxCell id="TfmfjPasP1LPnmOLtHZL-14" value="Private subnet" style="points=[[0,0],[0.25,0],[0.5,0],[0.75,0],[1,0],[1,0.25],[1,0.5],[1,0.75],[1,1],[0.75,1],[0.5,1],[0.25,1],[0,1],[0,0.75],[0,0.5],[0,0.25]];outlineConnect=0;gradientColor=none;html=1;whiteSpace=wrap;fontSize=12;fontStyle=0;container=1;pointerEvents=0;collapsible=0;recursiveResize=0;shape=mxgraph.aws4.group;grIcon=mxgraph.aws4.group_security_group;grStroke=0;strokeColor=#147EBA;fillColor=#E6F2F8;verticalAlign=top;align=left;spacingLeft=30;fontColor=#147EBA;dashed=0;" parent="TfmfjPasP1LPnmOLtHZL-5" vertex="1">
          <mxGeometry x="360" y="276" width="260" height="174" as="geometry" />
        </mxCell>
        <mxCell id="TfmfjPasP1LPnmOLtHZL-15" value="Private subnet" style="points=[[0,0],[0.25,0],[0.5,0],[0.75,0],[1,0],[1,0.25],[1,0.5],[1,0.75],[1,1],[0.75,1],[0.5,1],[0.25,1],[0,1],[0,0.75],[0,0.5],[0,0.25]];outlineConnect=0;gradientColor=none;html=1;whiteSpace=wrap;fontSize=12;fontStyle=0;container=1;pointerEvents=0;collapsible=0;recursiveResize=0;shape=mxgraph.aws4.group;grIcon=mxgraph.aws4.group_security_group;grStroke=0;strokeColor=#147EBA;fillColor=#E6F2F8;verticalAlign=top;align=left;spacingLeft=30;fontColor=#147EBA;dashed=0;" parent="TfmfjPasP1LPnmOLtHZL-5" vertex="1">
          <mxGeometry x="40" y="276" width="260" height="174" as="geometry" />
        </mxCell>
        <mxCell id="TfmfjPasP1LPnmOLtHZL-28" value="VPC" style="points=[[0,0],[0.25,0],[0.5,0],[0.75,0],[1,0],[1,0.25],[1,0.5],[1,0.75],[1,1],[0.75,1],[0.5,1],[0.25,1],[0,1],[0,0.75],[0,0.5],[0,0.25]];outlineConnect=0;gradientColor=none;html=1;whiteSpace=wrap;fontSize=12;fontStyle=0;container=1;pointerEvents=0;collapsible=0;recursiveResize=0;shape=mxgraph.aws4.group;grIcon=mxgraph.aws4.group_vpc;strokeColor=#248814;fillColor=none;verticalAlign=top;align=left;spacingLeft=30;fontColor=#AAB7B8;dashed=0;" parent="TfmfjPasP1LPnmOLtHZL-5" vertex="1">
          <mxGeometry x="10" y="30" width="660" height="530" as="geometry" />
        </mxCell>
        <mxCell id="TfmfjPasP1LPnmOLtHZL-31" value="" style="outlineConnect=0;dashed=0;verticalLabelPosition=bottom;verticalAlign=top;align=center;html=1;shape=mxgraph.aws3.vpc_nat_gateway;fillColor=#F58534;gradientColor=none;" parent="TfmfjPasP1LPnmOLtHZL-28" vertex="1">
          <mxGeometry x="210" y="166" width="30" height="30" as="geometry" />
        </mxCell>
        <mxCell id="TfmfjPasP1LPnmOLtHZL-32" value="" style="outlineConnect=0;dashed=0;verticalLabelPosition=bottom;verticalAlign=top;align=center;html=1;shape=mxgraph.aws3.vpc_nat_gateway;fillColor=#F58534;gradientColor=none;" parent="TfmfjPasP1LPnmOLtHZL-28" vertex="1">
          <mxGeometry x="533" y="166" width="30" height="30" as="geometry" />
        </mxCell>
        <mxCell id="TfmfjPasP1LPnmOLtHZL-35" value="" style="outlineConnect=0;dashed=0;verticalLabelPosition=bottom;verticalAlign=top;align=center;html=1;shape=mxgraph.aws3.application_load_balancer;fillColor=#F58534;gradientColor=none;" parent="TfmfjPasP1LPnmOLtHZL-28" vertex="1">
          <mxGeometry x="310" y="20" width="30" height="30" as="geometry" />
        </mxCell>
        <mxCell id="TfmfjPasP1LPnmOLtHZL-36" value="" style="sketch=0;outlineConnect=0;fontColor=#232F3E;gradientColor=none;fillColor=#4D27AA;strokeColor=none;dashed=0;verticalLabelPosition=bottom;verticalAlign=top;align=center;html=1;fontSize=12;fontStyle=0;aspect=fixed;pointerEvents=1;shape=mxgraph.aws4.internet_gateway;" parent="TfmfjPasP1LPnmOLtHZL-28" vertex="1">
          <mxGeometry x="120" y="-20" width="40" height="40" as="geometry" />
        </mxCell>
        <mxCell id="6-81aYlDGOuv0mXvwJQG-20" value="" style="sketch=0;points=[[0,0,0],[0.25,0,0],[0.5,0,0],[0.75,0,0],[1,0,0],[0,1,0],[0.25,1,0],[0.5,1,0],[0.75,1,0],[1,1,0],[0,0.25,0],[0,0.5,0],[0,0.75,0],[1,0.25,0],[1,0.5,0],[1,0.75,0]];outlineConnect=0;fontColor=#232F3E;gradientColor=#4D72F3;gradientDirection=north;fillColor=#3334B9;strokeColor=#ffffff;dashed=0;verticalLabelPosition=bottom;verticalAlign=top;align=center;html=1;fontSize=12;fontStyle=0;aspect=fixed;shape=mxgraph.aws4.resourceIcon;resIcon=mxgraph.aws4.elasticache;" vertex="1" parent="TfmfjPasP1LPnmOLtHZL-28">
          <mxGeometry x="219" y="302" width="33" height="33" as="geometry" />
        </mxCell>
        <mxCell id="TfmfjPasP1LPnmOLtHZL-29" value="" style="sketch=0;points=[[0,0,0],[0.25,0,0],[0.5,0,0],[0.75,0,0],[1,0,0],[0,1,0],[0.25,1,0],[0.5,1,0],[0.75,1,0],[1,1,0],[0,0.25,0],[0,0.5,0],[0,0.75,0],[1,0.25,0],[1,0.5,0],[1,0.75,0]];outlineConnect=0;fontColor=#232F3E;gradientColor=#F78E04;gradientDirection=north;fillColor=#D05C17;strokeColor=#ffffff;dashed=0;verticalLabelPosition=bottom;verticalAlign=top;align=center;html=1;fontSize=12;fontStyle=0;aspect=fixed;shape=mxgraph.aws4.resourceIcon;resIcon=mxgraph.aws4.lambda;direction=east;" parent="TfmfjPasP1LPnmOLtHZL-28" vertex="1">
          <mxGeometry x="142" y="361" width="30" height="30" as="geometry" />
        </mxCell>
        <mxCell id="6-81aYlDGOuv0mXvwJQG-74" value="" style="sketch=0;points=[[0,0,0],[0.25,0,0],[0.5,0,0],[0.75,0,0],[1,0,0],[0,1,0],[0.25,1,0],[0.5,1,0],[0.75,1,0],[1,1,0],[0,0.25,0],[0,0.5,0],[0,0.75,0],[1,0.25,0],[1,0.5,0],[1,0.75,0]];outlineConnect=0;fontColor=#232F3E;gradientColor=#F78E04;gradientDirection=north;fillColor=#D05C17;strokeColor=#ffffff;dashed=0;verticalLabelPosition=bottom;verticalAlign=top;align=center;html=1;fontSize=12;fontStyle=0;aspect=fixed;shape=mxgraph.aws4.resourceIcon;resIcon=mxgraph.aws4.fargate;" vertex="1" parent="TfmfjPasP1LPnmOLtHZL-28">
          <mxGeometry x="142" y="271.5" width="30" height="30" as="geometry" />
        </mxCell>
        <mxCell id="6-81aYlDGOuv0mXvwJQG-88" value="" style="endArrow=none;dashed=1;html=1;rounded=0;" edge="1" parent="TfmfjPasP1LPnmOLtHZL-28">
          <mxGeometry width="50" height="50" relative="1" as="geometry">
            <mxPoint x="127" y="341" as="sourcePoint" />
            <mxPoint x="127" y="341" as="targetPoint" />
            <Array as="points">
              <mxPoint x="187" y="341" />
              <mxPoint x="187" y="267" />
              <mxPoint x="127" y="267" />
            </Array>
          </mxGeometry>
        </mxCell>
        <mxCell id="6-81aYlDGOuv0mXvwJQG-94" value="RDS" style="shape=partialRectangle;whiteSpace=wrap;html=1;left=0;right=0;fillColor=none;rotation=-90;" vertex="1" parent="TfmfjPasP1LPnmOLtHZL-28">
          <mxGeometry x="30" y="308.5" width="30" height="20" as="geometry" />
        </mxCell>
        <mxCell id="6-81aYlDGOuv0mXvwJQG-96" value="ElastiCache" style="shape=partialRectangle;whiteSpace=wrap;html=1;left=0;right=0;fillColor=none;rotation=90;" vertex="1" parent="TfmfjPasP1LPnmOLtHZL-28">
          <mxGeometry x="260" y="308.5" width="30" height="20" as="geometry" />
        </mxCell>
        <mxCell id="6-81aYlDGOuv0mXvwJQG-103" value="NAT Gateway" style="shape=partialRectangle;whiteSpace=wrap;html=1;left=0;right=0;fillColor=none;rotation=90;" vertex="1" parent="TfmfjPasP1LPnmOLtHZL-28">
          <mxGeometry x="243.25" y="170" width="46.75" height="32.13" as="geometry" />
        </mxCell>
        <mxCell id="6-81aYlDGOuv0mXvwJQG-106" value="Internet Gateway" style="shape=partialRectangle;whiteSpace=wrap;html=1;left=0;right=0;fillColor=none;rotation=0;" vertex="1" parent="TfmfjPasP1LPnmOLtHZL-28">
          <mxGeometry x="80" y="20" width="52" height="30" as="geometry" />
        </mxCell>
        <mxCell id="6-81aYlDGOuv0mXvwJQG-108" value="" style="endArrow=classic;startArrow=classic;html=1;rounded=0;entryX=0;entryY=0.5;entryDx=0;entryDy=0;entryPerimeter=0;" edge="1" parent="TfmfjPasP1LPnmOLtHZL-28">
          <mxGeometry width="50" height="50" relative="1" as="geometry">
            <mxPoint x="141" y="18" as="sourcePoint" />
            <mxPoint x="310" y="32.99999999999977" as="targetPoint" />
            <Array as="points">
              <mxPoint x="141" y="33" />
            </Array>
          </mxGeometry>
        </mxCell>
        <mxCell id="6-81aYlDGOuv0mXvwJQG-12" value="" style="endArrow=classic;html=1;rounded=0;" edge="1" parent="TfmfjPasP1LPnmOLtHZL-5">
          <mxGeometry width="50" height="50" relative="1" as="geometry">
            <mxPoint x="340" y="80" as="sourcePoint" />
            <mxPoint x="490" y="150" as="targetPoint" />
            <Array as="points">
              <mxPoint x="340" y="100" />
              <mxPoint x="490" y="100" />
            </Array>
          </mxGeometry>
        </mxCell>
        <mxCell id="6-81aYlDGOuv0mXvwJQG-13" value="" style="endArrow=classic;html=1;rounded=0;entryX=0.5;entryY=0;entryDx=0;entryDy=0;" edge="1" parent="TfmfjPasP1LPnmOLtHZL-5">
          <mxGeometry width="50" height="50" relative="1" as="geometry">
            <mxPoint x="330" y="80" as="sourcePoint" />
            <mxPoint x="172" y="146" as="targetPoint" />
            <Array as="points">
              <mxPoint x="330" y="100" />
              <mxPoint x="172" y="100" />
              <mxPoint x="172" y="120" />
            </Array>
          </mxGeometry>
        </mxCell>
        <mxCell id="TfmfjPasP1LPnmOLtHZL-17" value="" style="sketch=0;points=[[0,0,0],[0.25,0,0],[0.5,0,0],[0.75,0,0],[1,0,0],[0,1,0],[0.25,1,0],[0.5,1,0],[0.75,1,0],[1,1,0],[0,0.25,0],[0,0.5,0],[0,0.75,0],[1,0.25,0],[1,0.5,0],[1,0.75,0]];outlineConnect=0;fontColor=#232F3E;gradientColor=#F78E04;gradientDirection=north;fillColor=#D05C17;strokeColor=#ffffff;dashed=0;verticalLabelPosition=bottom;verticalAlign=top;align=center;html=1;fontSize=12;fontStyle=0;aspect=fixed;shape=mxgraph.aws4.resourceIcon;resIcon=mxgraph.aws4.ecs;" parent="TfmfjPasP1LPnmOLtHZL-5" vertex="1">
          <mxGeometry x="152" y="335" width="30" height="30" as="geometry" />
        </mxCell>
        <mxCell id="TfmfjPasP1LPnmOLtHZL-23" value="" style="sketch=0;points=[[0,0,0],[0.25,0,0],[0.5,0,0],[0.75,0,0],[1,0,0],[0,1,0],[0.25,1,0],[0.5,1,0],[0.75,1,0],[1,1,0],[0,0.25,0],[0,0.5,0],[0,0.75,0],[1,0.25,0],[1,0.5,0],[1,0.75,0]];outlineConnect=0;fontColor=#232F3E;gradientColor=#4D72F3;gradientDirection=north;fillColor=#3334B9;strokeColor=#ffffff;dashed=0;verticalLabelPosition=bottom;verticalAlign=top;align=center;html=1;fontSize=12;fontStyle=0;aspect=fixed;shape=mxgraph.aws4.resourceIcon;resIcon=mxgraph.aws4.rds;" parent="TfmfjPasP1LPnmOLtHZL-5" vertex="1">
          <mxGeometry x="72" y="333" width="30" height="30" as="geometry" />
        </mxCell>
        <mxCell id="6-81aYlDGOuv0mXvwJQG-28" value="" style="endArrow=classic;startArrow=classic;html=1;rounded=0;exitX=0.5;exitY=0;exitDx=0;exitDy=0;exitPerimeter=0;entryX=0.5;entryY=1;entryDx=0;entryDy=0;entryPerimeter=0;" edge="1" parent="TfmfjPasP1LPnmOLtHZL-5" source="TfmfjPasP1LPnmOLtHZL-29" target="TfmfjPasP1LPnmOLtHZL-17">
          <mxGeometry width="50" height="50" relative="1" as="geometry">
            <mxPoint x="122" y="400" as="sourcePoint" />
            <mxPoint x="172" y="350" as="targetPoint" />
          </mxGeometry>
        </mxCell>
        <mxCell id="6-81aYlDGOuv0mXvwJQG-30" value="" style="endArrow=classic;startArrow=classic;html=1;rounded=0;exitX=1;exitY=0.5;exitDx=0;exitDy=0;exitPerimeter=0;entryX=0;entryY=0.5;entryDx=0;entryDy=0;entryPerimeter=0;" edge="1" parent="TfmfjPasP1LPnmOLtHZL-5" source="TfmfjPasP1LPnmOLtHZL-17" target="6-81aYlDGOuv0mXvwJQG-20">
          <mxGeometry width="50" height="50" relative="1" as="geometry">
            <mxPoint x="179" y="380" as="sourcePoint" />
            <mxPoint x="232" y="335" as="targetPoint" />
          </mxGeometry>
        </mxCell>
        <mxCell id="6-81aYlDGOuv0mXvwJQG-33" value="" style="endArrow=classic;html=1;rounded=0;entryX=1;entryY=0.5;entryDx=0;entryDy=0;entryPerimeter=0;" edge="1" parent="TfmfjPasP1LPnmOLtHZL-5" target="TfmfjPasP1LPnmOLtHZL-23">
          <mxGeometry width="50" height="50" relative="1" as="geometry">
            <mxPoint x="152" y="348" as="sourcePoint" />
            <mxPoint x="402" y="300" as="targetPoint" />
          </mxGeometry>
        </mxCell>
        <mxCell id="6-81aYlDGOuv0mXvwJQG-1" value="" style="sketch=0;outlineConnect=0;fontColor=#232F3E;gradientColor=none;fillColor=#232F3D;strokeColor=none;dashed=0;verticalLabelPosition=bottom;verticalAlign=top;align=center;html=1;fontSize=12;fontStyle=0;aspect=fixed;pointerEvents=1;shape=mxgraph.aws4.user;" vertex="1" parent="1">
          <mxGeometry x="200" y="-550" width="40" height="40" as="geometry" />
        </mxCell>
        <mxCell id="6-81aYlDGOuv0mXvwJQG-17" value="" style="endArrow=classic;startArrow=classic;html=1;rounded=0;entryX=0.5;entryY=1;entryDx=0;entryDy=0;entryPerimeter=0;" edge="1" parent="1" target="TfmfjPasP1LPnmOLtHZL-31">
          <mxGeometry width="50" height="50" relative="1" as="geometry">
            <mxPoint x="305" y="-70" as="sourcePoint" />
            <mxPoint x="342" y="-115" as="targetPoint" />
          </mxGeometry>
        </mxCell>
        <mxCell id="6-81aYlDGOuv0mXvwJQG-18" value="" style="endArrow=classic;startArrow=classic;html=1;rounded=0;entryX=0.5;entryY=1;entryDx=0;entryDy=0;entryPerimeter=0;" edge="1" parent="1">
          <mxGeometry width="50" height="50" relative="1" as="geometry">
            <mxPoint x="629" y="-70.00000000000023" as="sourcePoint" />
            <mxPoint x="629" y="-124" as="targetPoint" />
          </mxGeometry>
        </mxCell>
        <mxCell id="6-81aYlDGOuv0mXvwJQG-73" value="" style="endArrow=classic;startArrow=classic;html=1;rounded=0;" edge="1" parent="1" source="TfmfjPasP1LPnmOLtHZL-36" target="6-81aYlDGOuv0mXvwJQG-1">
          <mxGeometry width="50" height="50" relative="1" as="geometry">
            <mxPoint x="410" y="-260" as="sourcePoint" />
            <mxPoint x="220" y="-490" as="targetPoint" />
          </mxGeometry>
        </mxCell>
        <mxCell id="6-81aYlDGOuv0mXvwJQG-77" value="" style="sketch=0;points=[[0,0,0],[0.25,0,0],[0.5,0,0],[0.75,0,0],[1,0,0],[0,1,0],[0.25,1,0],[0.5,1,0],[0.75,1,0],[1,1,0],[0,0.25,0],[0,0.5,0],[0,0.75,0],[1,0.25,0],[1,0.5,0],[1,0.75,0]];outlineConnect=0;fontColor=#232F3E;gradientColor=#4D72F3;gradientDirection=north;fillColor=#3334B9;strokeColor=#ffffff;dashed=0;verticalLabelPosition=bottom;verticalAlign=top;align=center;html=1;fontSize=12;fontStyle=0;aspect=fixed;shape=mxgraph.aws4.resourceIcon;resIcon=mxgraph.aws4.elasticache;" vertex="1" parent="1">
          <mxGeometry x="620" y="-15" width="33" height="33" as="geometry" />
        </mxCell>
        <mxCell id="6-81aYlDGOuv0mXvwJQG-78" value="" style="sketch=0;points=[[0,0,0],[0.25,0,0],[0.5,0,0],[0.75,0,0],[1,0,0],[0,1,0],[0.25,1,0],[0.5,1,0],[0.75,1,0],[1,1,0],[0,0.25,0],[0,0.5,0],[0,0.75,0],[1,0.25,0],[1,0.5,0],[1,0.75,0]];outlineConnect=0;fontColor=#232F3E;gradientColor=#F78E04;gradientDirection=north;fillColor=#D05C17;strokeColor=#ffffff;dashed=0;verticalLabelPosition=bottom;verticalAlign=top;align=center;html=1;fontSize=12;fontStyle=0;aspect=fixed;shape=mxgraph.aws4.resourceIcon;resIcon=mxgraph.aws4.lambda;direction=east;" vertex="1" parent="1">
          <mxGeometry x="543" y="43" width="30" height="30" as="geometry" />
        </mxCell>
        <mxCell id="6-81aYlDGOuv0mXvwJQG-79" value="" style="sketch=0;points=[[0,0,0],[0.25,0,0],[0.5,0,0],[0.75,0,0],[1,0,0],[0,1,0],[0.25,1,0],[0.5,1,0],[0.75,1,0],[1,1,0],[0,0.25,0],[0,0.5,0],[0,0.75,0],[1,0.25,0],[1,0.5,0],[1,0.75,0]];outlineConnect=0;fontColor=#232F3E;gradientColor=#F78E04;gradientDirection=north;fillColor=#D05C17;strokeColor=#ffffff;dashed=0;verticalLabelPosition=bottom;verticalAlign=top;align=center;html=1;fontSize=12;fontStyle=0;aspect=fixed;shape=mxgraph.aws4.resourceIcon;resIcon=mxgraph.aws4.fargate;" vertex="1" parent="1">
          <mxGeometry x="543" y="-45.5" width="30" height="30" as="geometry" />
        </mxCell>
        <mxCell id="6-81aYlDGOuv0mXvwJQG-80" value="" style="sketch=0;points=[[0,0,0],[0.25,0,0],[0.5,0,0],[0.75,0,0],[1,0,0],[0,1,0],[0.25,1,0],[0.5,1,0],[0.75,1,0],[1,1,0],[0,0.25,0],[0,0.5,0],[0,0.75,0],[1,0.25,0],[1,0.5,0],[1,0.75,0]];outlineConnect=0;fontColor=#232F3E;gradientColor=#F78E04;gradientDirection=north;fillColor=#D05C17;strokeColor=#ffffff;dashed=0;verticalLabelPosition=bottom;verticalAlign=top;align=center;html=1;fontSize=12;fontStyle=0;aspect=fixed;shape=mxgraph.aws4.resourceIcon;resIcon=mxgraph.aws4.ecs;" vertex="1" parent="1">
          <mxGeometry x="543" y="-12" width="30" height="30" as="geometry" />
        </mxCell>
        <mxCell id="6-81aYlDGOuv0mXvwJQG-81" value="" style="sketch=0;points=[[0,0,0],[0.25,0,0],[0.5,0,0],[0.75,0,0],[1,0,0],[0,1,0],[0.25,1,0],[0.5,1,0],[0.75,1,0],[1,1,0],[0,0.25,0],[0,0.5,0],[0,0.75,0],[1,0.25,0],[1,0.5,0],[1,0.75,0]];outlineConnect=0;fontColor=#232F3E;gradientColor=#4D72F3;gradientDirection=north;fillColor=#3334B9;strokeColor=#ffffff;dashed=0;verticalLabelPosition=bottom;verticalAlign=top;align=center;html=1;fontSize=12;fontStyle=0;aspect=fixed;shape=mxgraph.aws4.resourceIcon;resIcon=mxgraph.aws4.rds;" vertex="1" parent="1">
          <mxGeometry x="463" y="-14" width="30" height="30" as="geometry" />
        </mxCell>
        <mxCell id="6-81aYlDGOuv0mXvwJQG-82" value="" style="endArrow=classic;startArrow=classic;html=1;rounded=0;exitX=0.5;exitY=0;exitDx=0;exitDy=0;exitPerimeter=0;entryX=0.5;entryY=1;entryDx=0;entryDy=0;entryPerimeter=0;" edge="1" parent="1" source="6-81aYlDGOuv0mXvwJQG-78" target="6-81aYlDGOuv0mXvwJQG-80">
          <mxGeometry width="50" height="50" relative="1" as="geometry">
            <mxPoint x="443" y="403" as="sourcePoint" />
            <mxPoint x="493" y="353" as="targetPoint" />
          </mxGeometry>
        </mxCell>
        <mxCell id="6-81aYlDGOuv0mXvwJQG-83" value="" style="endArrow=classic;startArrow=classic;html=1;rounded=0;exitX=1;exitY=0.5;exitDx=0;exitDy=0;exitPerimeter=0;entryX=0;entryY=0.5;entryDx=0;entryDy=0;entryPerimeter=0;" edge="1" parent="1" source="6-81aYlDGOuv0mXvwJQG-80" target="6-81aYlDGOuv0mXvwJQG-77">
          <mxGeometry width="50" height="50" relative="1" as="geometry">
            <mxPoint x="500" y="383" as="sourcePoint" />
            <mxPoint x="553" y="338" as="targetPoint" />
          </mxGeometry>
        </mxCell>
        <mxCell id="6-81aYlDGOuv0mXvwJQG-84" value="" style="endArrow=classic;html=1;rounded=0;entryX=1;entryY=0.5;entryDx=0;entryDy=0;entryPerimeter=0;" edge="1" parent="1" target="6-81aYlDGOuv0mXvwJQG-81">
          <mxGeometry width="50" height="50" relative="1" as="geometry">
            <mxPoint x="543" y="1" as="sourcePoint" />
            <mxPoint x="723" y="303" as="targetPoint" />
          </mxGeometry>
        </mxCell>
        <mxCell id="6-81aYlDGOuv0mXvwJQG-85" value="" style="endArrow=classic;startArrow=classic;html=1;rounded=0;entryX=0.75;entryY=1;entryDx=0;entryDy=0;entryPerimeter=0;exitX=0.5;exitY=1;exitDx=0;exitDy=0;exitPerimeter=0;" edge="1" parent="1" source="6-81aYlDGOuv0mXvwJQG-81" target="6-81aYlDGOuv0mXvwJQG-77">
          <mxGeometry width="50" height="50" relative="1" as="geometry">
            <mxPoint x="410" as="sourcePoint" />
            <mxPoint x="460" y="-50" as="targetPoint" />
            <Array as="points">
              <mxPoint x="478" y="90" />
              <mxPoint x="645" y="90" />
            </Array>
          </mxGeometry>
        </mxCell>
        <mxCell id="6-81aYlDGOuv0mXvwJQG-86" value="" style="endArrow=classic;startArrow=classic;html=1;rounded=0;entryX=0.75;entryY=1;entryDx=0;entryDy=0;entryPerimeter=0;exitX=0.5;exitY=1;exitDx=0;exitDy=0;exitPerimeter=0;" edge="1" parent="1">
          <mxGeometry width="50" height="50" relative="1" as="geometry">
            <mxPoint x="154" y="14" as="sourcePoint" />
            <mxPoint x="320.7499999999998" y="15.999999999999773" as="targetPoint" />
            <Array as="points">
              <mxPoint x="154" y="88" />
              <mxPoint x="321" y="88" />
            </Array>
          </mxGeometry>
        </mxCell>
        <mxCell id="6-81aYlDGOuv0mXvwJQG-89" value="" style="endArrow=none;dashed=1;html=1;rounded=0;" edge="1" parent="1">
          <mxGeometry width="50" height="50" relative="1" as="geometry">
            <mxPoint x="528" y="23" as="sourcePoint" />
            <mxPoint x="528" y="23" as="targetPoint" />
            <Array as="points">
              <mxPoint x="588" y="23" />
              <mxPoint x="588" y="-51" />
              <mxPoint x="528" y="-51" />
            </Array>
          </mxGeometry>
        </mxCell>
        <mxCell id="6-81aYlDGOuv0mXvwJQG-90" value="" style="endArrow=classic;html=1;rounded=0;entryX=0.5;entryY=0;entryDx=0;entryDy=0;entryPerimeter=0;" edge="1" parent="1">
          <mxGeometry width="50" height="50" relative="1" as="geometry">
            <mxPoint x="305" y="-286" as="sourcePoint" />
            <mxPoint x="305" y="-150" as="targetPoint" />
          </mxGeometry>
        </mxCell>
        <mxCell id="6-81aYlDGOuv0mXvwJQG-91" value="" style="endArrow=classic;html=1;rounded=0;" edge="1" parent="1">
          <mxGeometry width="50" height="50" relative="1" as="geometry">
            <mxPoint x="310" y="-290" as="sourcePoint" />
            <mxPoint x="628" y="-150" as="targetPoint" />
            <Array as="points">
              <mxPoint x="310" y="-310" />
              <mxPoint x="628" y="-310" />
            </Array>
          </mxGeometry>
        </mxCell>
        <mxCell id="6-81aYlDGOuv0mXvwJQG-95" value="RDS" style="shape=partialRectangle;whiteSpace=wrap;html=1;left=0;right=0;fillColor=none;rotation=-90;" vertex="1" parent="1">
          <mxGeometry x="432" y="-7.5" width="30" height="20" as="geometry" />
        </mxCell>
        <mxCell id="6-81aYlDGOuv0mXvwJQG-97" value="ElastiCache" style="shape=partialRectangle;whiteSpace=wrap;html=1;left=0;right=0;fillColor=none;rotation=90;" vertex="1" parent="1">
          <mxGeometry x="656" y="-7.5" width="30" height="20" as="geometry" />
        </mxCell>
        <mxCell id="6-81aYlDGOuv0mXvwJQG-98" value="Lambda" style="shape=partialRectangle;whiteSpace=wrap;html=1;left=0;right=0;fillColor=none;rotation=0;" vertex="1" parent="1">
          <mxGeometry x="222" y="68.5" width="30" height="20" as="geometry" />
        </mxCell>
        <mxCell id="6-81aYlDGOuv0mXvwJQG-100" value="Lambda" style="shape=partialRectangle;whiteSpace=wrap;html=1;left=0;right=0;fillColor=none;rotation=0;" vertex="1" parent="1">
          <mxGeometry x="543" y="70.5" width="30" height="20" as="geometry" />
        </mxCell>
        <mxCell id="6-81aYlDGOuv0mXvwJQG-101" value="ECS, Fargate" style="shape=partialRectangle;whiteSpace=wrap;html=1;left=0;right=0;fillColor=none;rotation=0;" vertex="1" parent="1">
          <mxGeometry x="275.75" y="-64.25" width="30" height="41.5" as="geometry" />
        </mxCell>
        <mxCell id="6-81aYlDGOuv0mXvwJQG-102" value="ECS, Fargate" style="shape=partialRectangle;whiteSpace=wrap;html=1;left=0;right=0;fillColor=none;rotation=0;" vertex="1" parent="1">
          <mxGeometry x="597.75" y="-64.25" width="30" height="41.5" as="geometry" />
        </mxCell>
        <mxCell id="6-81aYlDGOuv0mXvwJQG-104" value="NAT Gateway" style="shape=partialRectangle;whiteSpace=wrap;html=1;left=0;right=0;fillColor=none;rotation=90;" vertex="1" parent="1">
          <mxGeometry x="642.25" y="-153" width="46.75" height="32.13" as="geometry" />
        </mxCell>
        <mxCell id="6-81aYlDGOuv0mXvwJQG-105" value="ALB" style="shape=partialRectangle;whiteSpace=wrap;html=1;left=0;right=0;fillColor=none;rotation=0;" vertex="1" parent="1">
          <mxGeometry x="431" y="-293.5" width="30" height="20" as="geometry" />
        </mxCell>
        <mxCell id="6-81aYlDGOuv0mXvwJQG-107" value="Client" style="shape=partialRectangle;whiteSpace=wrap;html=1;left=0;right=0;fillColor=none;rotation=0;" vertex="1" parent="1">
          <mxGeometry x="194" y="-585" width="52" height="30" as="geometry" />
        </mxCell>
      </root>
    </mxGraphModel>
  </diagram>
</mxfile>
